<svg xmlns="http://www.w3.org/2000/svg" xmlns:xlink="http://www.w3.org/1999/xlink" xmlns:lucid="lucid" width="1040" height="840"><g transform="translate(-0.3303684879288511 -0.3303684879288511)" lucid:page-tab-id="0_0"><path d="M0 0h1188.3v840.66H0z" fill="#fff"/><path d="M20.33 299.18c0-2.76 1.94-6.12 4.32-7.5L96 250.17c2.4-1.4 6.27-1.4 8.65 0l71.36 41.5c2.4 1.38 4.33 4.74 4.33 7.5v63.48c0 2.77-2.24 5-5 5h-150c-2.76 0-5-2.23-5-5z" stroke="#000" stroke-width="2" fill="#fff"/><use xlink:href="#a" transform="matrix(1,0,0,1,20.33036848792885,247.6637018212623) translate(60.025 52.8)"/><use xlink:href="#b" transform="matrix(1,0,0,1,20.33036848792885,247.6637018212623) translate(56.5 74.4)"/><path d="M131.74 488.66h-22.9v-2h22.9zm137.6 0h-9.75v-2h9.73z"/><path d="M270.33 488.66h-1.03v-2h1.03z"/><path d="M107.83 492.3l-14.26-4.64 14.26-4.63z" fill="#fff"/><path d="M108.83 493.68l-18.5-6.02 18.5-6zm-12.03-6.02l10.03 3.26v-6.52z"/><use xlink:href="#c" transform="matrix(1,0,0,1,131.7387018212621,476.8637018212622) translate(0.005000000000002558 14.4)"/><path d="M269.33 450.26h-1.97v-2h1.97zm-9.84 0h-3.95v-2h3.94zm-11.83 0h-3.93v-2h3.93zm-11.8 0h-3.94v-2h3.93zm-70.88 0h-3.95v-2H165zm-11.82 0h-3.94v-2h3.94zm-11.8 0h-3.95v-2h3.94zm-11.83 0h-3.93v-2h3.93zm-11.8 0h-3.95v-2h3.94zm-11.82 0H102v-2h3.93zm-11.8 0h-1.98v-2h1.97z"/><path d="M270.33 450.26h-1.03v-2h1.03zM110.02 439.94l-15.76 9.32 15.76 9.32-1.02 1.73-18.67-11.04L109 438.22z"/><use xlink:href="#d" transform="matrix(1,0,0,1,165.68870182126213,438.46370182126213) translate(0.004999999999999005 14.4)"/><path d="M145.76 408.66h-53.6v-2h53.6zm123.57 0h-23.77v-2h23.77z"/><path d="M270.33 408.66h-1.03v-2h1.03zM110.02 398.34l-15.76 9.32 15.76 9.32-1.02 1.73-18.67-11.04L109 396.62z"/><use xlink:href="#e" transform="matrix(1,0,0,1,145.76370182126212,396.8637018212621) translate(0.005000000000002558 14.4)"/><path d="M100.33 20.33h140v40h-140z" stroke="#000" stroke-opacity="0" stroke-width="2" fill="#fff" fill-opacity="0"/><use xlink:href="#f" transform="matrix(1,0,0,1,105.33036848792884,25.33036848792885) translate(14.049999999999997 18.6)"/><use xlink:href="#g" transform="matrix(1,0,0,1,105.33036848792884,25.33036848792885) translate(84.95 18.6)"/><path d="M90.33 77.33c0-2.76 2.24-5 5-5h150c2.76 0 5 2.24 5 5v110c0 2.76-2.24 5-5 5h-150c-2.76 0-5-2.24-5-5z" stroke="#000" stroke-width="2" fill-opacity="0"/><use xlink:href="#h" transform="matrix(1,0,0,1,98.33036848792884,80.33036848792887) translate(26.9 55.6)"/><use xlink:href="#i" transform="matrix(1,0,0,1,98.33036848792884,80.33036848792887) translate(72.19999999999999 55.6)"/><path d="M100.33 247.16v-26.4h70v-25.6" fill="none"/><path d="M100.33 247.16v-2.03m0-8.13v-4.07m0-8.14v-4.05h.02m8.13 0h4.07m8.14 0h4.05m8.14 0h4.05m8.14 0h4.06m8.13 0h4.06m8.13 0h.83v-3.23m0-8.14v-4.06m0-8.14v-2.03" stroke="#000" stroke-width="2" fill="none"/><path d="M101.33 248.23l-1.38-.1-.62.1v-1.1h2z"/><path d="M180.5 212.5l-10.17-17.2-10.18 17.2" stroke="#000" stroke-width="2" fill="none"/><path d="M190.33 252.66c0-2.76 2.24-5 5-5h150c2.76 0 5 2.24 5 5v110c0 2.77-2.24 5-5 5h-150c-2.76 0-5-2.23-5-5z" stroke="#000" stroke-width="2" fill="#666"/><use xlink:href="#j" transform="matrix(1,0,0,1,198.33036848792887,255.66370182122347) translate(12.024999999999999 44.8)"/><use xlink:href="#k" transform="matrix(1,0,0,1,198.33036848792887,255.66370182122347) translate(102.975 44.8)"/><use xlink:href="#l" transform="matrix(1,0,0,1,198.33036848792887,255.66370182122347) translate(49.55 66.4)"/><path d="M270.33 245.66V220h-100v-24.85" fill="none"/><path d="M270.33 245.66v-1.93m0-7.7v-3.87m0-7.72v-3.86m-7.14-.58h-3.87m-7.72 0h-3.85m-7.7 0h-3.87m-7.72 0h-3.86m-7.72 0h-3.86m-7.72 0h-3.86m-7.72 0h-3.86m-7.7 0h-3.87m-7.73 0h-.24v-3.62m0-7.72v-3.86m0-7.72v-1.93" stroke="#000" stroke-width="2" fill="none"/><path d="M271.33 246.66h-2v-1.02h2z"/><path d="M180.5 212.5l-10.17-17.2-10.18 17.2" stroke="#000" stroke-width="2" fill="none"/><path d="M860.33 212.66c0-2.76 2.24-5 5-5h150c2.76 0 5 2.24 5 5v110c0 2.77-2.24 5-5 5h-150c-2.76 0-5-2.23-5-5z" stroke="#000" stroke-width="2" fill="#666"/><use xlink:href="#m" transform="matrix(1,0,0,1,868.3303684879288,215.66370182122347) translate(22.549999999999997 44.8)"/><use xlink:href="#n" transform="matrix(1,0,0,1,868.3303684879288,215.66370182122347) translate(37.55 66.4)"/><path d="M620.33 705.33c0-2.76 2.24-5 5-5h150c2.76 0 5 2.24 5 5v110c0 2.76-2.24 5-5 5h-150c-2.76 0-5-2.24-5-5z" stroke="#000" stroke-width="2" fill-opacity="0"/><use xlink:href="#o" transform="matrix(1,0,0,1,628.3303684879288,708.3303684879288) translate(52.55 44.8)"/><use xlink:href="#p" transform="matrix(1,0,0,1,628.3303684879288,708.3303684879288) translate(12.624999999999993 66.4)"/><path d="M620.33 345.33c0-2.76 2.24-5 5-5h150c2.76 0 5 2.24 5 5v110c0 2.76-2.24 5-5 5h-150c-2.76 0-5-2.24-5-5z" stroke="#000" stroke-width="2" fill-opacity="0"/><use xlink:href="#q" transform="matrix(1,0,0,1,628.3303684879288,348.33036848792887) translate(52.5 44.8)"/><use xlink:href="#r" transform="matrix(1,0,0,1,628.3303684879288,348.33036848792887) translate(53.55 66.4)"/><path d="M620.33 525.33c0-2.76 2.24-5 5-5h150c2.76 0 5 2.24 5 5v110c0 2.76-2.24 5-5 5h-150c-2.76 0-5-2.24-5-5z" stroke="#000" stroke-width="2" fill="#666"/><use xlink:href="#s" transform="matrix(1,0,0,1,628.3303684879288,528.3303684879288) translate(25.049999999999997 55.6)"/><path d="M860.33 45.33c0-2.76 2.24-5 5-5h150c2.76 0 5 2.24 5 5v110c0 2.76-2.24 5-5 5h-150c-2.76 0-5-2.24-5-5z" stroke="#000" stroke-width="2" fill-opacity="0"/><use xlink:href="#t" transform="matrix(1,0,0,1,868.3303684879288,48.33036848792885) translate(51 44.8)"/><use xlink:href="#u" transform="matrix(1,0,0,1,868.3303684879288,48.33036848792885) translate(38.525 66.4)"/><path d="M940.33 205.66v-25.83" stroke="#000" stroke-width="2" fill="none"/><path d="M941.33 206.66h-2v-1.02h2z"/><path d="M940.33 164.57l4.64 14.26h-9.27z" stroke="#000" stroke-width="2" fill="#fff"/><path d="M380.33 259.18c0-2.76 1.94-6.12 4.32-7.5l71.36-41.5c2.4-1.4 6.27-1.4 8.65 0l71.36 41.5c2.4 1.38 4.33 4.74 4.33 7.5v63.48c0 2.77-2.24 5-5 5h-150c-2.76 0-5-2.23-5-5z" stroke="#000" stroke-width="2" fill="#666"/><use xlink:href="#m" transform="matrix(1,0,0,1,380.33036848792887,207.66370182122353) translate(30.549999999999997 52.8)"/><use xlink:href="#v" transform="matrix(1,0,0,1,380.33036848792887,207.66370182122353) translate(23.124999999999993 74.4)"/><use xlink:href="#w" transform="matrix(1,0,0,1,380.33036848792887,207.66370182122353) translate(104.975 74.4)"/><path d="M380.33 91.85c0-2.76 1.94-6.13 4.32-7.5L456 42.84c2.4-1.4 6.27-1.4 8.65 0L536 84.34c2.4 1.37 4.33 4.74 4.33 7.5v63.48c0 2.76-2.24 5-5 5h-150c-2.76 0-5-2.24-5-5z" stroke="#000" stroke-width="2" fill="#fff"/><use xlink:href="#a" transform="matrix(1,0,0,1,380.33036848792887,40.33036848792885) translate(60.025 52.8)"/><use xlink:href="#b" transform="matrix(1,0,0,1,380.33036848792887,40.33036848792885) translate(56.5 74.4)"/><path d="M460.33 207.16v-27.33" stroke="#000" stroke-width="2" fill="none"/><path d="M461.33 208.23l-1.38-.1-.62.1v-1.1h2z"/><path d="M460.33 164.57l4.64 14.26h-9.27z" stroke="#000" stroke-width="2" fill="#fff"/><path d="M654.88 268.66H543.15v-2h111.73zm203.45 0H745.78v-2h112.55z"/><path d="M859.33 268.66h-1.03v-2h1.03zM561.02 258.34l-15.76 9.32 15.76 9.32-1.02 1.73-18.67-11.04L560 256.62z"/><use xlink:href="#x" transform="matrix(1,0,0,1,654.8803684879288,256.86370182122346) translate(0.005000000000002558 14.4)"/><path d="M461.33 665.33h185.45v2H459.33V329.66h2z"/><path d="M461.33 329.7h-2v-1.04h2z"/><path/><path d="M941.33 668.66H753.88v-2h185.45v-337h2z"/><path d="M941.33 329.7h-2v-1.04h2z"/><path/><path d="M701.33 697.5h-2v-21.3h2zm0-42.9h-2v-12.27h2z"/><path d="M701.33 642.36h-2v-1.03h2zM711.37 680.66l-11.04 18.67-11.04-18.67 1.7-1.02 9.33 15.76 9.32-15.76z"/><use xlink:href="#y" transform="matrix(1,0,0,1,646.7803684879289,654.5896277471882) translate(0.005000000000002558 14.4)"/><path d="M782.33 580.33h33.05v-269" stroke="#000" stroke-width="2" fill="none"/><path d="M782.36 581.33h-1.03v-2h1.03z"/><path d="M815.38 311.36v-1.03" stroke="#000" stroke-width="2" fill="none"/><path d="M664.36 311.33H542.33v-2h122.03zm193.15 0H736.3v-2h121.2z"/><path d="M542.36 311.33h-1.03v-2h1.03zM859.33 310.33l-18.67 11.04-1.02-1.72 15.76-9.32-15.76-9.32 1.02-1.7z"/><g><use xlink:href="#z" transform="matrix(1,0,0,1,664.3553684879288,299.5303684879289) translate(0.005000000000002558 14.4)"/></g><path d="M573.56 311.33v269h43.95M573.56 311.36v-1.03" stroke="#000" stroke-width="2" fill="none"/><path d="M600.15 590.5l17.22-10.17-17.22-10.18M700.33 518.33v-38.5" stroke="#000" stroke-width="2" fill="none"/><path d="M701.33 519.33h-2v-1.03h2z"/><path d="M700.33 464.57l4.64 14.26h-9.27z" stroke="#000" stroke-width="2" fill="#fff"/><defs><path d="M115-194c55 1 70 41 70 98S169 2 115 4C84 4 66-9 55-30l1 105H24l-1-265h31l2 30c10-21 28-34 59-34zm-8 174c40 0 45-34 45-75s-6-73-45-74c-42 0-51 32-51 76 0 43 10 73 51 73" id="A"/><path d="M114-163C36-179 61-72 57 0H25l-1-190h30c1 12-1 29 2 39 6-27 23-49 58-41v29" id="B"/><path d="M100-194c62-1 85 37 85 99 1 63-27 99-86 99S16-35 15-95c0-66 28-99 85-99zM99-20c44 1 53-31 53-75 0-43-8-75-51-75s-53 32-53 75 10 74 51 75" id="C"/><path d="M108 0H70L1-190h34L89-25l56-165h34" id="D"/><path d="M33-154v-36h34v36H33zM33 0v-36h34V0H33" id="E"/><g id="a"><use transform="matrix(0.05,0,0,0.05,0,0)" xlink:href="#A"/><use transform="matrix(0.05,0,0,0.05,10,0)" xlink:href="#B"/><use transform="matrix(0.05,0,0,0.05,15.949999999999998,0)" xlink:href="#C"/><use transform="matrix(0.05,0,0,0.05,25.950000000000003,0)" xlink:href="#D"/><use transform="matrix(0.05,0,0,0.05,34.95,0)" xlink:href="#E"/></g><path d="M205 0l-28-72H64L36 0H1l101-248h38L239 0h-34zm-38-99l-47-123c-12 45-31 82-46 123h93" id="F"/><path d="M177-190C167-65 218 103 67 71c-23-6-38-20-44-43l32-5c15 47 100 32 89-28v-30C133-14 115 1 83 1 29 1 15-40 15-95c0-56 16-97 71-98 29-1 48 16 59 35 1-10 0-23 2-32h30zM94-22c36 0 50-32 50-73 0-42-14-75-50-75-39 0-46 34-46 75s6 73 46 73" id="G"/><path d="M100-194c63 0 86 42 84 106H49c0 40 14 67 53 68 26 1 43-12 49-29l28 8c-11 28-37 45-77 45C44 4 14-33 15-96c1-61 26-98 85-98zm52 81c6-60-76-77-97-28-3 7-6 17-6 28h103" id="H"/><path d="M117-194c89-4 53 116 60 194h-32v-121c0-31-8-49-39-48C34-167 62-67 57 0H25l-1-190h30c1 10-1 24 2 32 11-22 29-35 61-36" id="I"/><path d="M59-47c-2 24 18 29 38 22v24C64 9 27 4 27-40v-127H5v-23h24l9-43h21v43h35v23H59v120" id="J"/><g id="b"><use transform="matrix(0.05,0,0,0.05,0,0)" xlink:href="#F"/><use transform="matrix(0.05,0,0,0.05,12,0)" xlink:href="#G"/><use transform="matrix(0.05,0,0,0.05,22,0)" xlink:href="#H"/><use transform="matrix(0.05,0,0,0.05,32,0)" xlink:href="#I"/><use transform="matrix(0.05,0,0,0.05,42,0)" xlink:href="#J"/></g><path d="M85-194c31 0 48 13 60 33l-1-100h32l1 261h-30c-2-10 0-23-3-31C134-8 116 4 85 4 32 4 16-35 15-94c0-66 23-100 70-100zm9 24c-40 0-46 34-46 75 0 40 6 74 45 74 42 0 51-32 51-76 0-42-9-74-50-73" id="K"/><path d="M101-234c-31-9-42 10-38 44h38v23H63V0H32v-167H5v-23h27c-7-52 17-82 69-68v24" id="L"/><path d="M135-143c-3-34-86-38-87 0 15 53 115 12 119 90S17 21 10-45l28-5c4 36 97 45 98 0-10-56-113-15-118-90-4-57 82-63 122-42 12 7 21 19 24 35" id="M"/><path d="M84 4C-5 8 30-112 23-190h32v120c0 31 7 50 39 49 72-2 45-101 50-169h31l1 190h-30c-1-10 1-25-2-33-11 22-28 36-60 37" id="N"/><path d="M115-194c53 0 69 39 70 98 0 66-23 100-70 100C84 3 66-7 56-30L54 0H23l1-261h32v101c10-23 28-34 59-34zm-8 174c40 0 45-34 45-75 0-40-5-75-45-74-42 0-51 32-51 76 0 43 10 73 51 73" id="O"/><path d="M212-179c-10-28-35-45-73-45-59 0-87 40-87 99 0 60 29 101 89 101 43 0 62-24 78-52l27 14C228-24 195 4 139 4 59 4 22-46 18-125c-6-104 99-153 187-111 19 9 31 26 39 46" id="P"/><path d="M24 0v-261h32V0H24" id="Q"/><path d="M141-36C126-15 110 5 73 4 37 3 15-17 15-53c-1-64 63-63 125-63 3-35-9-54-41-54-24 1-41 7-42 31l-33-3c5-37 33-52 76-52 45 0 72 20 72 64v82c-1 20 7 32 28 27v20c-31 9-61-2-59-35zM48-53c0 20 12 33 32 33 41-3 63-29 60-74-43 2-92-5-92 41" id="R"/><path d="M140-251c81 0 123 46 123 126C263-46 219 4 140 4 59 4 17-45 17-125s42-126 123-126zm0 227c63 0 89-41 89-101s-29-99-89-99c-61 0-89 39-89 99S79-25 140-24" id="S"/><g id="c"><use transform="matrix(0.05,0,0,0.05,0,0)" xlink:href="#B"/><use transform="matrix(0.05,0,0,0.05,5.95,0)" xlink:href="#K"/><use transform="matrix(0.05,0,0,0.05,15.949999999999998,0)" xlink:href="#L"/><use transform="matrix(0.05,0,0,0.05,20.95,0)" xlink:href="#M"/><use transform="matrix(0.05,0,0,0.05,29.950000000000003,0)" xlink:href="#E"/><use transform="matrix(0.05,0,0,0.05,34.95,0)" xlink:href="#M"/><use transform="matrix(0.05,0,0,0.05,43.95,0)" xlink:href="#N"/><use transform="matrix(0.05,0,0,0.05,53.95,0)" xlink:href="#O"/><use transform="matrix(0.05,0,0,0.05,63.95,0)" xlink:href="#P"/><use transform="matrix(0.05,0,0,0.05,76.9,0)" xlink:href="#Q"/><use transform="matrix(0.05,0,0,0.05,80.85000000000001,0)" xlink:href="#R"/><use transform="matrix(0.05,0,0,0.05,90.85000000000001,0)" xlink:href="#M"/><use transform="matrix(0.05,0,0,0.05,99.85000000000001,0)" xlink:href="#M"/><use transform="matrix(0.05,0,0,0.05,108.85000000000001,0)" xlink:href="#S"/><use transform="matrix(0.05,0,0,0.05,122.85000000000001,0)" xlink:href="#L"/></g><path d="M179-190L93 31C79 59 56 82 12 73V49c39 6 53-20 64-50L1-190h34L92-34l54-156h33" id="T"/><g id="d"><use transform="matrix(0.05,0,0,0.05,0,0)" xlink:href="#B"/><use transform="matrix(0.05,0,0,0.05,5.95,0)" xlink:href="#K"/><use transform="matrix(0.05,0,0,0.05,15.949999999999998,0)" xlink:href="#L"/><use transform="matrix(0.05,0,0,0.05,20.95,0)" xlink:href="#E"/><use transform="matrix(0.05,0,0,0.05,25.950000000000003,0)" xlink:href="#J"/><use transform="matrix(0.05,0,0,0.05,30.950000000000003,0)" xlink:href="#T"/><use transform="matrix(0.05,0,0,0.05,39.95,0)" xlink:href="#A"/><use transform="matrix(0.05,0,0,0.05,49.95,0)" xlink:href="#H"/></g><path d="M206 0h-36l-40-164L89 0H53L-1-190h32L70-26l43-164h34l41 164 42-164h31" id="U"/><path d="M30-248c87 1 191-15 191 75 0 78-77 80-158 76V0H30v-248zm33 125c57 0 124 11 124-50 0-59-68-47-124-48v98" id="V"/><g id="e"><use transform="matrix(0.05,0,0,0.05,0,0)" xlink:href="#C"/><use transform="matrix(0.05,0,0,0.05,10,0)" xlink:href="#U"/><use transform="matrix(0.05,0,0,0.05,22.950000000000003,0)" xlink:href="#Q"/><use transform="matrix(0.05,0,0,0.05,26.900000000000002,0)" xlink:href="#E"/><use transform="matrix(0.05,0,0,0.05,31.900000000000002,0)" xlink:href="#V"/><use transform="matrix(0.05,0,0,0.05,43.900000000000006,0)" xlink:href="#B"/><use transform="matrix(0.05,0,0,0.05,49.85000000000001,0)" xlink:href="#C"/><use transform="matrix(0.05,0,0,0.05,59.85,0)" xlink:href="#A"/><use transform="matrix(0.05,0,0,0.05,69.85000000000001,0)" xlink:href="#H"/><use transform="matrix(0.05,0,0,0.05,79.85000000000001,0)" xlink:href="#B"/><use transform="matrix(0.05,0,0,0.05,85.80000000000001,0)" xlink:href="#J"/><use transform="matrix(0.05,0,0,0.05,90.80000000000001,0)" xlink:href="#T"/></g><path d="M30 0v-248h187v28H63v79h144v27H63v87h162V0H30" id="W"/><path d="M210-169c-67 3-38 105-44 169h-31v-121c0-29-5-50-35-48C34-165 62-65 56 0H25l-1-190h30c1 10-1 24 2 32 10-44 99-50 107 0 11-21 27-35 58-36 85-2 47 119 55 194h-31v-121c0-29-5-49-35-48" id="X"/><g id="f"><use transform="matrix(0.05,0,0,0.05,0,0)" xlink:href="#W"/><use transform="matrix(0.05,0,0,0.05,12,0)" xlink:href="#Q"/><use transform="matrix(0.05,0,0,0.05,15.949999999999998,0)" xlink:href="#H"/><use transform="matrix(0.05,0,0,0.05,25.950000000000003,0)" xlink:href="#X"/><use transform="matrix(0.05,0,0,0.05,40.9,0)" xlink:href="#H"/><use transform="matrix(0.05,0,0,0.05,50.9,0)" xlink:href="#I"/><use transform="matrix(0.05,0,0,0.05,60.900000000000006,0)" xlink:href="#J"/><path d="M-.9 1.25h72.7v1.32H-.9z"/></g><path d="M194 0L95-120 63-95V0H30v-248h33v124l119-124h40L117-140 236 0h-42" id="Y"/><g id="g"><use transform="matrix(0.05,0,0,0.05,0,0)" xlink:href="#Y"/><use transform="matrix(0.05,0,0,0.05,12,0)" xlink:href="#H"/><use transform="matrix(0.05,0,0,0.05,22,0)" xlink:href="#T"/><path d="M-.9 1.25h32.8v1.32H-.9z"/></g><path d="M266 0h-40l-56-210L115 0H75L2-248h35L96-30l15-64 43-154h32l59 218 59-218h35" id="Z"/><path d="M30 0v-248h33v221h125V0H30" id="aa"/><g id="h"><use transform="matrix(0.05,0,0,0.05,0,0)" xlink:href="#S"/><use transform="matrix(0.05,0,0,0.05,14,0)" xlink:href="#Z"/><use transform="matrix(0.05,0,0,0.05,30.950000000000003,0)" xlink:href="#aa"/></g><g id="i"><use transform="matrix(0.05,0,0,0.05,0,0)" xlink:href="#P"/><use transform="matrix(0.05,0,0,0.05,12.950000000000001,0)" xlink:href="#Q"/><use transform="matrix(0.05,0,0,0.05,16.900000000000002,0)" xlink:href="#R"/><use transform="matrix(0.05,0,0,0.05,26.900000000000002,0)" xlink:href="#M"/><use transform="matrix(0.05,0,0,0.05,35.900000000000006,0)" xlink:href="#M"/></g><path fill="#fff" d="M30 0v-248h33v221h125V0H30" id="ab"/><path fill="#fff" d="M100-194c62-1 85 37 85 99 1 63-27 99-86 99S16-35 15-95c0-66 28-99 85-99zM99-20c44 1 53-31 53-75 0-43-8-75-51-75s-53 32-53 75 10 74 51 75" id="ac"/><path fill="#fff" d="M117-194c89-4 53 116 60 194h-32v-121c0-31-8-49-39-48C34-167 62-67 57 0H25l-1-190h30c1 10-1 24 2 32 11-22 29-35 61-36" id="ad"/><path fill="#fff" d="M177-190C167-65 218 103 67 71c-23-6-38-20-44-43l32-5c15 47 100 32 89-28v-30C133-14 115 1 83 1 29 1 15-40 15-95c0-56 16-97 71-98 29-1 48 16 59 35 1-10 0-23 2-32h30zM94-22c36 0 50-32 50-73 0-42-14-75-50-75-39 0-46 34-46 75s6 73 46 73" id="ae"/><path fill="#fff" d="M185-189c-5-48-123-54-124 2 14 75 158 14 163 119 3 78-121 87-175 55-17-10-28-26-33-46l33-7c5 56 141 63 141-1 0-78-155-14-162-118-5-82 145-84 179-34 5 7 8 16 11 25" id="af"/><path fill="#fff" d="M115-194c55 1 70 41 70 98S169 2 115 4C84 4 66-9 55-30l1 105H24l-1-265h31l2 30c10-21 28-34 59-34zm-8 174c40 0 45-34 45-75s-6-73-45-74c-42 0-51 32-51 76 0 43 10 73 51 73" id="ag"/><path fill="#fff" d="M24-231v-30h32v30H24zM24 0v-190h32V0H24" id="ah"/><path fill="#fff" d="M100-194c63 0 86 42 84 106H49c0 40 14 67 53 68 26 1 43-12 49-29l28 8c-11 28-37 45-77 45C44 4 14-33 15-96c1-61 26-98 85-98zm52 81c6-60-76-77-97-28-3 7-6 17-6 28h103" id="ai"/><g id="j"><use transform="matrix(0.05,0,0,0.05,0,0)" xlink:href="#ab"/><use transform="matrix(0.05,0,0,0.05,10,0)" xlink:href="#ac"/><use transform="matrix(0.05,0,0,0.05,20,0)" xlink:href="#ad"/><use transform="matrix(0.05,0,0,0.05,30,0)" xlink:href="#ae"/><use transform="matrix(0.05,0,0,0.05,40,0)" xlink:href="#af"/><use transform="matrix(0.05,0,0,0.05,52,0)" xlink:href="#ag"/><use transform="matrix(0.05,0,0,0.05,62,0)" xlink:href="#ah"/><use transform="matrix(0.05,0,0,0.05,65.95,0)" xlink:href="#ad"/><use transform="matrix(0.05,0,0,0.05,75.95,0)" xlink:href="#ai"/></g><path fill="#fff" d="M140-251c81 0 123 46 123 126C263-46 219 4 140 4 59 4 17-45 17-125s42-126 123-126zm0 227c63 0 89-41 89-101s-29-99-89-99c-61 0-89 39-89 99S79-25 140-24" id="aj"/><path fill="#fff" d="M59-47c-2 24 18 29 38 22v24C64 9 27 4 27-40v-127H5v-23h24l9-43h21v43h35v23H59v120" id="ak"/><g id="k"><use transform="matrix(0.05,0,0,0.05,0,0)" xlink:href="#aj"/><use transform="matrix(0.05,0,0,0.05,14,0)" xlink:href="#ad"/><use transform="matrix(0.05,0,0,0.05,24,0)" xlink:href="#ak"/></g><path fill="#fff" d="M212-179c-10-28-35-45-73-45-59 0-87 40-87 99 0 60 29 101 89 101 43 0 62-24 78-52l27 14C228-24 195 4 139 4 59 4 22-46 18-125c-6-104 99-153 187-111 19 9 31 26 39 46" id="al"/><path fill="#fff" d="M24 0v-261h32V0H24" id="am"/><path fill="#fff" d="M141-36C126-15 110 5 73 4 37 3 15-17 15-53c-1-64 63-63 125-63 3-35-9-54-41-54-24 1-41 7-42 31l-33-3c5-37 33-52 76-52 45 0 72 20 72 64v82c-1 20 7 32 28 27v20c-31 9-61-2-59-35zM48-53c0 20 12 33 32 33 41-3 63-29 60-74-43 2-92-5-92 41" id="an"/><path fill="#fff" d="M135-143c-3-34-86-38-87 0 15 53 115 12 119 90S17 21 10-45l28-5c4 36 97 45 98 0-10-56-113-15-118-90-4-57 82-63 122-42 12 7 21 19 24 35" id="ao"/><g id="l"><use transform="matrix(0.05,0,0,0.05,0,0)" xlink:href="#al"/><use transform="matrix(0.05,0,0,0.05,12.950000000000001,0)" xlink:href="#am"/><use transform="matrix(0.05,0,0,0.05,16.900000000000002,0)" xlink:href="#an"/><use transform="matrix(0.05,0,0,0.05,26.900000000000002,0)" xlink:href="#ao"/><use transform="matrix(0.05,0,0,0.05,35.900000000000006,0)" xlink:href="#ao"/></g><path fill="#fff" d="M143 4C61 4 22-44 18-125c-5-107 100-154 193-111 17 8 29 25 37 43l-32 9c-13-25-37-40-76-40-61 0-88 39-88 99 0 61 29 100 91 101 35 0 62-11 79-27v-45h-74v-28h105v86C228-13 192 4 143 4" id="ap"/><path fill="#fff" d="M108 0H70L1-190h34L89-25l56-165h34" id="aq"/><path fill="#fff" d="M114-163C36-179 61-72 57 0H25l-1-190h30c1 12-1 29 2 39 6-27 23-49 58-41v29" id="ar"/><path fill="#fff" d="M210-169c-67 3-38 105-44 169h-31v-121c0-29-5-50-35-48C34-165 62-65 56 0H25l-1-190h30c1 10-1 24 2 32 10-44 99-50 107 0 11-21 27-35 58-36 85-2 47 119 55 194h-31v-121c0-29-5-49-35-48" id="as"/><g id="m"><use transform="matrix(0.05,0,0,0.05,0,0)" xlink:href="#ap"/><use transform="matrix(0.05,0,0,0.05,14,0)" xlink:href="#ac"/><use transform="matrix(0.05,0,0,0.05,24,0)" xlink:href="#aq"/><use transform="matrix(0.05,0,0,0.05,33,0)" xlink:href="#ai"/><use transform="matrix(0.05,0,0,0.05,43,0)" xlink:href="#ar"/><use transform="matrix(0.05,0,0,0.05,48.95,0)" xlink:href="#ad"/><use transform="matrix(0.05,0,0,0.05,58.95,0)" xlink:href="#as"/><use transform="matrix(0.05,0,0,0.05,73.9,0)" xlink:href="#ai"/><use transform="matrix(0.05,0,0,0.05,83.9,0)" xlink:href="#ad"/><use transform="matrix(0.05,0,0,0.05,93.9,0)" xlink:href="#ak"/></g><path fill="#fff" d="M63-220v92h138v28H63V0H30v-248h175v28H63" id="at"/><path fill="#fff" d="M84 4C-5 8 30-112 23-190h32v120c0 31 7 50 39 49 72-2 45-101 50-169h31l1 190h-30c-1-10 1-25-2-33-11 22-28 36-60 37" id="au"/><path fill="#fff" d="M96-169c-40 0-48 33-48 73s9 75 48 75c24 0 41-14 43-38l32 2c-6 37-31 61-74 61-59 0-76-41-82-99-10-93 101-131 147-64 4 7 5 14 7 22l-32 3c-4-21-16-35-41-35" id="av"/><g id="n"><use transform="matrix(0.05,0,0,0.05,0,0)" xlink:href="#at"/><use transform="matrix(0.05,0,0,0.05,10.950000000000001,0)" xlink:href="#au"/><use transform="matrix(0.05,0,0,0.05,20.950000000000003,0)" xlink:href="#ad"/><use transform="matrix(0.05,0,0,0.05,30.950000000000003,0)" xlink:href="#av"/><use transform="matrix(0.05,0,0,0.05,39.95,0)" xlink:href="#ak"/><use transform="matrix(0.05,0,0,0.05,44.95,0)" xlink:href="#ah"/><use transform="matrix(0.05,0,0,0.05,48.900000000000006,0)" xlink:href="#ac"/><use transform="matrix(0.05,0,0,0.05,58.900000000000006,0)" xlink:href="#ad"/></g><path d="M24-231v-30h32v30H24zM24 0v-190h32V0H24" id="aw"/><g id="o"><use transform="matrix(0.05,0,0,0.05,0,0)" xlink:href="#J"/><use transform="matrix(0.05,0,0,0.05,5,0)" xlink:href="#aw"/><use transform="matrix(0.05,0,0,0.05,8.95,0)" xlink:href="#X"/><use transform="matrix(0.05,0,0,0.05,23.9,0)" xlink:href="#H"/><use transform="matrix(0.05,0,0,0.05,33.9,0)" xlink:href="#E"/></g><path d="M127-220V0H93v-220H8v-28h204v28h-85" id="ax"/><g id="p"><use transform="matrix(0.05,0,0,0.05,0,0)" xlink:href="#ax"/><use transform="matrix(0.05,0,0,0.05,8.950000000000001,0)" xlink:href="#H"/><use transform="matrix(0.05,0,0,0.05,18.950000000000003,0)" xlink:href="#X"/><use transform="matrix(0.05,0,0,0.05,33.900000000000006,0)" xlink:href="#A"/><use transform="matrix(0.05,0,0,0.05,43.900000000000006,0)" xlink:href="#C"/><use transform="matrix(0.05,0,0,0.05,53.900000000000006,0)" xlink:href="#B"/><use transform="matrix(0.05,0,0,0.05,59.85,0)" xlink:href="#R"/><use transform="matrix(0.05,0,0,0.05,69.85000000000001,0)" xlink:href="#Q"/><use transform="matrix(0.05,0,0,0.05,73.80000000000001,0)" xlink:href="#W"/><use transform="matrix(0.05,0,0,0.05,85.80000000000001,0)" xlink:href="#I"/><use transform="matrix(0.05,0,0,0.05,95.80000000000001,0)" xlink:href="#J"/><use transform="matrix(0.05,0,0,0.05,100.80000000000001,0)" xlink:href="#aw"/><use transform="matrix(0.05,0,0,0.05,104.75,0)" xlink:href="#J"/><use transform="matrix(0.05,0,0,0.05,109.75,0)" xlink:href="#T"/></g><path d="M96-169c-40 0-48 33-48 73s9 75 48 75c24 0 41-14 43-38l32 2c-6 37-31 61-74 61-59 0-76-41-82-99-10-93 101-131 147-64 4 7 5 14 7 22l-32 3c-4-21-16-35-41-35" id="ay"/><g id="q"><use transform="matrix(0.05,0,0,0.05,0,0)" xlink:href="#K"/><use transform="matrix(0.05,0,0,0.05,10,0)" xlink:href="#ay"/><use transform="matrix(0.05,0,0,0.05,19,0)" xlink:href="#R"/><use transform="matrix(0.05,0,0,0.05,29,0)" xlink:href="#J"/><use transform="matrix(0.05,0,0,0.05,34,0)" xlink:href="#E"/></g><path d="M233-177c-1 41-23 64-60 70L243 0h-38l-65-103H63V0H30v-248c88 3 205-21 203 71zM63-129c60-2 137 13 137-47 0-61-80-42-137-45v92" id="az"/><g id="r"><use transform="matrix(0.05,0,0,0.05,0,0)" xlink:href="#az"/><use transform="matrix(0.05,0,0,0.05,12.950000000000001,0)" xlink:href="#C"/><use transform="matrix(0.05,0,0,0.05,22.950000000000003,0)" xlink:href="#Q"/><use transform="matrix(0.05,0,0,0.05,26.900000000000002,0)" xlink:href="#H"/></g><path fill="#fff" d="M205 0l-28-72H64L36 0H1l101-248h38L239 0h-34zm-38-99l-47-123c-12 45-31 82-46 123h93" id="aA"/><g id="s"><use transform="matrix(0.05,0,0,0.05,0,0)" xlink:href="#aA"/><use transform="matrix(0.05,0,0,0.05,12,0)" xlink:href="#ao"/><use transform="matrix(0.05,0,0,0.05,21,0)" xlink:href="#ao"/><use transform="matrix(0.05,0,0,0.05,30,0)" xlink:href="#ah"/><use transform="matrix(0.05,0,0,0.05,33.95,0)" xlink:href="#ae"/><use transform="matrix(0.05,0,0,0.05,43.95,0)" xlink:href="#ad"/><use transform="matrix(0.05,0,0,0.05,53.95,0)" xlink:href="#as"/><use transform="matrix(0.05,0,0,0.05,68.9,0)" xlink:href="#ai"/><use transform="matrix(0.05,0,0,0.05,78.9,0)" xlink:href="#ad"/><use transform="matrix(0.05,0,0,0.05,88.9,0)" xlink:href="#ak"/></g><path d="M143 0L79-87 56-68V0H24v-261h32v163l83-92h37l-77 82L181 0h-38" id="aB"/><g id="t"><use transform="matrix(0.05,0,0,0.05,0,0)" xlink:href="#M"/><use transform="matrix(0.05,0,0,0.05,9,0)" xlink:href="#aB"/><use transform="matrix(0.05,0,0,0.05,18,0)" xlink:href="#C"/><use transform="matrix(0.05,0,0,0.05,28,0)" xlink:href="#M"/><use transform="matrix(0.05,0,0,0.05,37,0)" xlink:href="#E"/></g><g id="u"><use transform="matrix(0.05,0,0,0.05,0,0)" xlink:href="#P"/><use transform="matrix(0.05,0,0,0.05,12.950000000000001,0)" xlink:href="#C"/><use transform="matrix(0.05,0,0,0.05,22.950000000000003,0)" xlink:href="#I"/><use transform="matrix(0.05,0,0,0.05,32.95,0)" xlink:href="#ay"/><use transform="matrix(0.05,0,0,0.05,41.95,0)" xlink:href="#H"/><use transform="matrix(0.05,0,0,0.05,51.95,0)" xlink:href="#A"/><use transform="matrix(0.05,0,0,0.05,61.95,0)" xlink:href="#J"/></g><g id="v"><use transform="matrix(0.05,0,0,0.05,0,0)" xlink:href="#af"/><use transform="matrix(0.05,0,0,0.05,12,0)" xlink:href="#ak"/><use transform="matrix(0.05,0,0,0.05,17,0)" xlink:href="#ar"/><use transform="matrix(0.05,0,0,0.05,22.95,0)" xlink:href="#au"/><use transform="matrix(0.05,0,0,0.05,32.95,0)" xlink:href="#av"/><use transform="matrix(0.05,0,0,0.05,41.95,0)" xlink:href="#ak"/><use transform="matrix(0.05,0,0,0.05,46.95,0)" xlink:href="#au"/><use transform="matrix(0.05,0,0,0.05,56.95,0)" xlink:href="#ar"/><use transform="matrix(0.05,0,0,0.05,62.900000000000006,0)" xlink:href="#an"/><use transform="matrix(0.05,0,0,0.05,72.9,0)" xlink:href="#am"/></g><path fill="#fff" d="M232-93c-1 65-40 97-104 97C67 4 28-28 28-90v-158h33c8 89-33 224 67 224 102 0 64-133 71-224h33v155" id="aC"/><g id="w"><use transform="matrix(0.05,0,0,0.05,0,0)" xlink:href="#aC"/><use transform="matrix(0.05,0,0,0.05,12.950000000000001,0)" xlink:href="#ad"/><use transform="matrix(0.05,0,0,0.05,22.950000000000003,0)" xlink:href="#ah"/><use transform="matrix(0.05,0,0,0.05,26.900000000000002,0)" xlink:href="#ak"/></g><g id="x"><use transform="matrix(0.05,0,0,0.05,0,0)" xlink:href="#R"/><use transform="matrix(0.05,0,0,0.05,10,0)" xlink:href="#M"/><use transform="matrix(0.05,0,0,0.05,19,0)" xlink:href="#M"/><use transform="matrix(0.05,0,0,0.05,28,0)" xlink:href="#aw"/><use transform="matrix(0.05,0,0,0.05,31.950000000000003,0)" xlink:href="#G"/><use transform="matrix(0.05,0,0,0.05,41.95,0)" xlink:href="#I"/><use transform="matrix(0.05,0,0,0.05,51.95,0)" xlink:href="#H"/><use transform="matrix(0.05,0,0,0.05,61.95,0)" xlink:href="#K"/><use transform="matrix(0.05,0,0,0.05,71.95,0)" xlink:href="#ax"/><use transform="matrix(0.05,0,0,0.05,80.9,0)" xlink:href="#C"/></g><path d="M106-169C34-169 62-67 57 0H25v-261h32l-1 103c12-21 28-36 61-36 89 0 53 116 60 194h-32v-121c2-32-8-49-39-48" id="aD"/><g id="y"><use transform="matrix(0.05,0,0,0.05,0,0)" xlink:href="#J"/><use transform="matrix(0.05,0,0,0.05,5,0)" xlink:href="#aw"/><use transform="matrix(0.05,0,0,0.05,8.95,0)" xlink:href="#X"/><use transform="matrix(0.05,0,0,0.05,23.9,0)" xlink:href="#H"/><use transform="matrix(0.05,0,0,0.05,33.9,0)" xlink:href="#E"/><use transform="matrix(0.05,0,0,0.05,38.9,0)" xlink:href="#aD"/><use transform="matrix(0.05,0,0,0.05,48.9,0)" xlink:href="#R"/><use transform="matrix(0.05,0,0,0.05,58.900000000000006,0)" xlink:href="#M"/><use transform="matrix(0.05,0,0,0.05,67.9,0)" xlink:href="#ax"/><use transform="matrix(0.05,0,0,0.05,78.2,0)" xlink:href="#aw"/><use transform="matrix(0.05,0,0,0.05,82.15,0)" xlink:href="#X"/><use transform="matrix(0.05,0,0,0.05,97.10000000000001,0)" xlink:href="#H"/></g><g id="z"><use transform="matrix(0.05,0,0,0.05,0,0)" xlink:href="#R"/><use transform="matrix(0.05,0,0,0.05,10,0)" xlink:href="#M"/><use transform="matrix(0.05,0,0,0.05,19,0)" xlink:href="#M"/><use transform="matrix(0.05,0,0,0.05,28,0)" xlink:href="#aw"/><use transform="matrix(0.05,0,0,0.05,31.950000000000003,0)" xlink:href="#G"/><use transform="matrix(0.05,0,0,0.05,41.95,0)" xlink:href="#I"/><use transform="matrix(0.05,0,0,0.05,51.95,0)" xlink:href="#H"/><use transform="matrix(0.05,0,0,0.05,61.95,0)" xlink:href="#K"/></g></defs></g></svg>