<svg xmlns="http://www.w3.org/2000/svg" xmlns:xlink="http://www.w3.org/1999/xlink" xmlns:lucid="lucid" width="760" height="329.85"><g transform="translate(7.245349867139055 8.84698177869755)" lucid:page-tab-id="XN-rsD-0Qa36"><path d="M0 0h745.5v527.4H0z" fill="#fff"/><path d="M732.75 158.94c0 22.1-31.34 40-70 40s-70-17.9-70-40 31.34-40 70-40 70 17.9 70 40z" stroke="#000" stroke-width="2" fill="#fff"/><use xlink:href="#a" transform="matrix(1,0,0,1,597.7546501328609,123.94481973165136) translate(15.549999999999997 27.799999999999997)"/><use xlink:href="#b" transform="matrix(1,0,0,1,597.7546501328609,123.94481973165136) translate(30.549999999999997 49.4)"/><path d="M442.75 158.94c0 22.1-31.34 40-70 40s-70-17.9-70-40 31.34-40 70-40 70 17.9 70 40z" stroke="#000" stroke-width="2" fill="#fff"/><use xlink:href="#c" transform="matrix(1,0,0,1,307.75465013286095,123.94481973165136) translate(12.899999999999999 38.6)"/><use xlink:href="#d" transform="matrix(1,0,0,1,307.75465013286095,123.94481973165136) translate(57.1 38.6)"/><path d="M152.75 158.94c0 22.1-31.34 40-70 40s-70-17.9-70-40 31.34-40 70-40 70 17.9 70 40z" stroke="#000" stroke-width="2" fill="#fff"/><use xlink:href="#a" transform="matrix(1,0,0,1,17.754650132860945,123.94481973165136) translate(15.549999999999997 27.799999999999997)"/><use xlink:href="#e" transform="matrix(1,0,0,1,17.754650132860945,123.94481973165136) translate(8.124999999999993 49.4)"/><use xlink:href="#f" transform="matrix(1,0,0,1,17.754650132860945,123.94481973165136) translate(89.975 49.4)"/><path d="M497.33 159.94h-35.07v-2h35.07zm93.42 0h-25.52v-2h25.52z"/><path d="M591.75 158.94l.04 1h-1.07v-2h1.06zM461.26 163.58L447 158.94l14.26-4.63z"/><path d="M462.26 164.96l-18.5-6.02 18.5-6zm-12.03-6.02l10.03 3.26v-6.5z"/><use xlink:href="#g" transform="matrix(1,0,0,1,497.33374092459536,148.14481973165135) translate(0 14.4)"/><use xlink:href="#h" transform="matrix(1,0,0,1,497.33374092459536,148.14481973165135) translate(34 14.4)"/><path d="M171.8 159.94h-17.04v-2h17.05zm111.45 0H239.7v-2h43.55z"/><path d="M154.78 159.94h-1.06l.04-1-.04-1h1.06zM298.52 158.94l-14.27 4.64v-9.27z"/><path d="M301.75 158.94l-18.5 6.02v-12.03zm-16.5 3.26l10.03-3.26-10.03-3.25z"/><use xlink:href="#g" transform="matrix(1,0,0,1,171.8083522303736,148.14481973165135) translate(0 14.4)"/><use xlink:href="#h" transform="matrix(1,0,0,1,171.8083522303736,148.14481973165135) translate(34 14.4)"/><path d="M152.3 200.18l6.84 7.92 7.2 7.66 7.55 7.4 7.92 7.15 8.32 6.88 8.7 6.6 9.1 6.33 9.5 6.04 9.9 5.72 10.32 5.38 10.7 5.04 11.1 4.67 11.5 4.26 11.82 3.86 12.17 3.4 12.48 2.92 12.73 2.42 6.62.98v2.02l-6.95-1.02-12.82-2.45-12.54-2.94-12.25-3.43-11.9-3.87-11.57-4.3-11.17-4.7-10.8-5.06-10.37-5.43-10-5.75-9.56-6.07-9.17-6.37-8.77-6.65-8.38-6.93-8-7.2-7.62-7.46-7.25-7.72-6.9-7.98-1.54-1.95 1.58-1.23zm454.58-14.66l-5.56 7.66-6.54 8.24-6.9 8-7.24 7.7-7.62 7.47-8 7.2-8.37 6.92-8.77 6.66-9.17 6.37-9.56 6.08-9.97 5.76-10.4 5.4-10.77 5.1-11.17 4.7-11.56 4.28-11.9 3.87-12.26 3.43-12.54 2.94-12.82 2.45-7 1.03v-2.02l6.67-1 12.74-2.42 12.47-2.92 12.18-3.4 11.83-3.85 11.5-4.27 11.1-4.67 10.7-5.04 10.3-5.4 9.9-5.7 9.5-6.04 9.1-6.32 8.7-6.6 8.32-6.9 7.93-7.13 7.56-7.4 7.2-7.66 6.84-7.92 6.48-8.18 5.54-7.63zM153.1 195.3l-7.4 5.6-4.9-14.2z"/><path d="M154.8 195.27l-9.6 7.24-6.35-18.38zm-8.6 4l5.2-3.94-8.65-6.04zM606.47 184l1 .7-.6.84-1.62-1.18.62-.85z"/><use xlink:href="#i" transform="matrix(1,0,0,1,326.7835052216012,288.40106217544826) translate(0 14.4)"/><use xlink:href="#j" transform="matrix(1,0,0,1,326.7835052216012,288.40106217544826) translate(76.95 14.4)"/><path d="M333 14.85l-9.78.92-12.67 1.72-12.32 2.2-11.94 2.64-11.54 3.07-11.12 3.48-10.7 3.83-10.25 4.18-9.84 4.5-9.4 4.77-9 5.05-8.6 5.32-8.2 5.56-7.85 5.8-7.46 6.04-7.12 6.26-6.8 6.5-6.45 6.72-6.15 6.95-5.84 7.2-5.55 7.44-5.25 7.7-4.45 7.16-1.7-1.05 4.47-7.2 5.3-7.77 5.6-7.5 5.9-7.27 6.2-7.02 6.52-6.78 6.84-6.55 7.2-6.3 7.53-6.1 7.9-5.85 8.27-5.6 8.67-5.37 9.07-5.1 9.5-4.8 9.9-4.54 10.34-4.2L263 26.98l11.2-3.5 11.62-3.1 12.02-2.66 12.4-2.2L323 13.77l10-.94zm84.86 2.18l13.57 2.75 13.36 3.3 13.08 3.82 12.78 4.32 12.4 4.78 12 5.2 11.56 5.6 11.1 5.98 10.64 6.3 10.15 6.6 9.67 6.9 9.2 7.14 8.7 7.4 8.26 7.6 7.8 7.8 7.34 8.02 6.68 7.9-1.53 1.3-6.65-7.88-7.3-7.95-7.73-7.75-8.2-7.55-8.64-7.32-9.12-7.1-9.6-6.83-10.08-6.57-10.56-6.26-11.03-5.93L494.24 43l-11.92-5.17L470 33.1l-12.7-4.3-13-3.8-13.3-3.27L417.5 19l-12.54-2v-2.03z"/><path d="M134.74 129.84l-.53.86-1.7-1.02.55-.9zM604.55 131.3l-12.28-8.62 7.4-5.57z"/><path d="M606.5 133.88l-15.93-11.17 9.6-7.22zm-12.52-11.23l8.63 6.06-3.4-9.97z"/><use xlink:href="#k" transform="matrix(1,0,0,1,333.0131325846292,2.1530182213024496) translate(0 14.4)"/><path d="M373.52 288.4h-2l.07-28.03h2zm.2-69.95l-.07 20.32h-2l.06-20.33z"/><path/><path d="M377.34 217.46l-9.27-.03 4.68-14.25z"/><path d="M378.72 218.46l-12.03-.03 6.05-18.48zm-9.27-2.02l6.52.02-3.23-10.04z"/><g><use xlink:href="#g" transform="matrix(1,0,0,1,338.67245822275737,238.76985824569857) translate(0 14.4)"/><use xlink:href="#h" transform="matrix(1,0,0,1,338.67245822275737,238.76985824569857) translate(34 14.4)"/></g><path d="M373.43 99.45h-2l-.07-23.13h2zm.06-44.73h-2l.45-30.97h2z"/><path/><path d="M372.48 114.72l-4.68-14.25 9.27-.03z"/><path d="M372.5 117.95l-6.08-18.48 12.02-.04zm-3.32-16.5l3.3 10.03 3.22-10.04z"/><g><use xlink:href="#g" transform="matrix(1,0,0,1,338.376448587408,54.718115026541255) translate(0 14.4)"/><use xlink:href="#h" transform="matrix(1,0,0,1,338.376448587408,54.718115026541255) translate(34 14.4)"/></g><defs><path d="M143 4C61 4 22-44 18-125c-5-107 100-154 193-111 17 8 29 25 37 43l-32 9c-13-25-37-40-76-40-61 0-88 39-88 99 0 61 29 100 91 101 35 0 62-11 79-27v-45h-74v-28h105v86C228-13 192 4 143 4" id="l"/><path d="M100-194c62-1 85 37 85 99 1 63-27 99-86 99S16-35 15-95c0-66 28-99 85-99zM99-20c44 1 53-31 53-75 0-43-8-75-51-75s-53 32-53 75 10 74 51 75" id="m"/><path d="M108 0H70L1-190h34L89-25l56-165h34" id="n"/><path d="M100-194c63 0 86 42 84 106H49c0 40 14 67 53 68 26 1 43-12 49-29l28 8c-11 28-37 45-77 45C44 4 14-33 15-96c1-61 26-98 85-98zm52 81c6-60-76-77-97-28-3 7-6 17-6 28h103" id="o"/><path d="M114-163C36-179 61-72 57 0H25l-1-190h30c1 12-1 29 2 39 6-27 23-49 58-41v29" id="p"/><path d="M117-194c89-4 53 116 60 194h-32v-121c0-31-8-49-39-48C34-167 62-67 57 0H25l-1-190h30c1 10-1 24 2 32 11-22 29-35 61-36" id="q"/><path d="M210-169c-67 3-38 105-44 169h-31v-121c0-29-5-50-35-48C34-165 62-65 56 0H25l-1-190h30c1 10-1 24 2 32 10-44 99-50 107 0 11-21 27-35 58-36 85-2 47 119 55 194h-31v-121c0-29-5-49-35-48" id="r"/><path d="M59-47c-2 24 18 29 38 22v24C64 9 27 4 27-40v-127H5v-23h24l9-43h21v43h35v23H59v120" id="s"/><g id="a"><use transform="matrix(0.05,0,0,0.05,0,0)" xlink:href="#l"/><use transform="matrix(0.05,0,0,0.05,14,0)" xlink:href="#m"/><use transform="matrix(0.05,0,0,0.05,24,0)" xlink:href="#n"/><use transform="matrix(0.05,0,0,0.05,33,0)" xlink:href="#o"/><use transform="matrix(0.05,0,0,0.05,43,0)" xlink:href="#p"/><use transform="matrix(0.05,0,0,0.05,48.95,0)" xlink:href="#q"/><use transform="matrix(0.05,0,0,0.05,58.95,0)" xlink:href="#r"/><use transform="matrix(0.05,0,0,0.05,73.9,0)" xlink:href="#o"/><use transform="matrix(0.05,0,0,0.05,83.9,0)" xlink:href="#q"/><use transform="matrix(0.05,0,0,0.05,93.9,0)" xlink:href="#s"/></g><path d="M63-220v92h138v28H63V0H30v-248h175v28H63" id="t"/><path d="M84 4C-5 8 30-112 23-190h32v120c0 31 7 50 39 49 72-2 45-101 50-169h31l1 190h-30c-1-10 1-25-2-33-11 22-28 36-60 37" id="u"/><path d="M96-169c-40 0-48 33-48 73s9 75 48 75c24 0 41-14 43-38l32 2c-6 37-31 61-74 61-59 0-76-41-82-99-10-93 101-131 147-64 4 7 5 14 7 22l-32 3c-4-21-16-35-41-35" id="v"/><path d="M24-231v-30h32v30H24zM24 0v-190h32V0H24" id="w"/><g id="b"><use transform="matrix(0.05,0,0,0.05,0,0)" xlink:href="#t"/><use transform="matrix(0.05,0,0,0.05,10.950000000000001,0)" xlink:href="#u"/><use transform="matrix(0.05,0,0,0.05,20.950000000000003,0)" xlink:href="#q"/><use transform="matrix(0.05,0,0,0.05,30.950000000000003,0)" xlink:href="#v"/><use transform="matrix(0.05,0,0,0.05,39.95,0)" xlink:href="#s"/><use transform="matrix(0.05,0,0,0.05,44.95,0)" xlink:href="#w"/><use transform="matrix(0.05,0,0,0.05,48.900000000000006,0)" xlink:href="#m"/><use transform="matrix(0.05,0,0,0.05,58.900000000000006,0)" xlink:href="#q"/></g><path d="M127-220V0H93v-220H8v-28h204v28h-85" id="x"/><g id="c"><use transform="matrix(0.05,0,0,0.05,0,0)" xlink:href="#x"/><use transform="matrix(0.05,0,0,0.05,10.3,0)" xlink:href="#w"/><use transform="matrix(0.05,0,0,0.05,14.25,0)" xlink:href="#r"/><use transform="matrix(0.05,0,0,0.05,29.200000000000003,0)" xlink:href="#o"/></g><path d="M30 0v-248h187v28H63v79h144v27H63v87h162V0H30" id="y"/><path d="M115-194c55 1 70 41 70 98S169 2 115 4C84 4 66-9 55-30l1 105H24l-1-265h31l2 30c10-21 28-34 59-34zm-8 174c40 0 45-34 45-75s-6-73-45-74c-42 0-51 32-51 76 0 43 10 73 51 73" id="z"/><path d="M106-169C34-169 62-67 57 0H25v-261h32l-1 103c12-21 28-36 61-36 89 0 53 116 60 194h-32v-121c2-32-8-49-39-48" id="A"/><path d="M135-143c-3-34-86-38-87 0 15 53 115 12 119 90S17 21 10-45l28-5c4 36 97 45 98 0-10-56-113-15-118-90-4-57 82-63 122-42 12 7 21 19 24 35" id="B"/><g id="d"><use transform="matrix(0.05,0,0,0.05,0,0)" xlink:href="#y"/><use transform="matrix(0.05,0,0,0.05,12,0)" xlink:href="#z"/><use transform="matrix(0.05,0,0,0.05,22,0)" xlink:href="#m"/><use transform="matrix(0.05,0,0,0.05,32,0)" xlink:href="#v"/><use transform="matrix(0.05,0,0,0.05,41,0)" xlink:href="#A"/><use transform="matrix(0.05,0,0,0.05,51,0)" xlink:href="#B"/></g><path d="M185-189c-5-48-123-54-124 2 14 75 158 14 163 119 3 78-121 87-175 55-17-10-28-26-33-46l33-7c5 56 141 63 141-1 0-78-155-14-162-118-5-82 145-84 179-34 5 7 8 16 11 25" id="C"/><path d="M141-36C126-15 110 5 73 4 37 3 15-17 15-53c-1-64 63-63 125-63 3-35-9-54-41-54-24 1-41 7-42 31l-33-3c5-37 33-52 76-52 45 0 72 20 72 64v82c-1 20 7 32 28 27v20c-31 9-61-2-59-35zM48-53c0 20 12 33 32 33 41-3 63-29 60-74-43 2-92-5-92 41" id="D"/><path d="M24 0v-261h32V0H24" id="E"/><g id="e"><use transform="matrix(0.05,0,0,0.05,0,0)" xlink:href="#C"/><use transform="matrix(0.05,0,0,0.05,12,0)" xlink:href="#s"/><use transform="matrix(0.05,0,0,0.05,17,0)" xlink:href="#p"/><use transform="matrix(0.05,0,0,0.05,22.95,0)" xlink:href="#u"/><use transform="matrix(0.05,0,0,0.05,32.95,0)" xlink:href="#v"/><use transform="matrix(0.05,0,0,0.05,41.95,0)" xlink:href="#s"/><use transform="matrix(0.05,0,0,0.05,46.95,0)" xlink:href="#u"/><use transform="matrix(0.05,0,0,0.05,56.95,0)" xlink:href="#p"/><use transform="matrix(0.05,0,0,0.05,62.900000000000006,0)" xlink:href="#D"/><use transform="matrix(0.05,0,0,0.05,72.9,0)" xlink:href="#E"/></g><path d="M232-93c-1 65-40 97-104 97C67 4 28-28 28-90v-158h33c8 89-33 224 67 224 102 0 64-133 71-224h33v155" id="F"/><g id="f"><use transform="matrix(0.05,0,0,0.05,0,0)" xlink:href="#F"/><use transform="matrix(0.05,0,0,0.05,12.950000000000001,0)" xlink:href="#q"/><use transform="matrix(0.05,0,0,0.05,22.950000000000003,0)" xlink:href="#w"/><use transform="matrix(0.05,0,0,0.05,26.900000000000002,0)" xlink:href="#s"/></g><g id="g"><use transform="matrix(0.05,0,0,0.05,0,0)" xlink:href="#A"/><use transform="matrix(0.05,0,0,0.05,10,0)" xlink:href="#D"/><use transform="matrix(0.05,0,0,0.05,20,0)" xlink:href="#B"/></g><g id="h"><use transform="matrix(0.05,0,0,0.05,0,0)" xlink:href="#s"/><use transform="matrix(0.05,0,0,0.05,5,0)" xlink:href="#w"/><use transform="matrix(0.05,0,0,0.05,8.95,0)" xlink:href="#r"/><use transform="matrix(0.05,0,0,0.05,23.9,0)" xlink:href="#o"/></g><path d="M177-190C167-65 218 103 67 71c-23-6-38-20-44-43l32-5c15 47 100 32 89-28v-30C133-14 115 1 83 1 29 1 15-40 15-95c0-56 16-97 71-98 29-1 48 16 59 35 1-10 0-23 2-32h30zM94-22c36 0 50-32 50-73 0-42-14-75-50-75-39 0-46 34-46 75s6 73 46 73" id="G"/><path d="M85-194c31 0 48 13 60 33l-1-100h32l1 261h-30c-2-10 0-23-3-31C134-8 116 4 85 4 32 4 16-35 15-94c0-66 23-100 70-100zm9 24c-40 0-46 34-46 75 0 40 6 74 45 74 42 0 51-32 51-76 0-42-9-74-50-73" id="H"/><g id="i"><use transform="matrix(0.05,0,0,0.05,0,0)" xlink:href="#D"/><use transform="matrix(0.05,0,0,0.05,10,0)" xlink:href="#B"/><use transform="matrix(0.05,0,0,0.05,19,0)" xlink:href="#B"/><use transform="matrix(0.05,0,0,0.05,28,0)" xlink:href="#w"/><use transform="matrix(0.05,0,0,0.05,31.950000000000003,0)" xlink:href="#G"/><use transform="matrix(0.05,0,0,0.05,41.95,0)" xlink:href="#q"/><use transform="matrix(0.05,0,0,0.05,51.95,0)" xlink:href="#o"/><use transform="matrix(0.05,0,0,0.05,61.95,0)" xlink:href="#H"/></g><g id="j"><use transform="matrix(0.05,0,0,0.05,0,0)" xlink:href="#s"/><use transform="matrix(0.05,0,0,0.05,5,0)" xlink:href="#m"/></g><g id="k"><use transform="matrix(0.05,0,0,0.05,0,0)" xlink:href="#D"/><use transform="matrix(0.05,0,0,0.05,10,0)" xlink:href="#B"/><use transform="matrix(0.05,0,0,0.05,19,0)" xlink:href="#B"/><use transform="matrix(0.05,0,0,0.05,28,0)" xlink:href="#w"/><use transform="matrix(0.05,0,0,0.05,31.950000000000003,0)" xlink:href="#G"/><use transform="matrix(0.05,0,0,0.05,41.95,0)" xlink:href="#q"/><use transform="matrix(0.05,0,0,0.05,51.95,0)" xlink:href="#o"/><use transform="matrix(0.05,0,0,0.05,61.95,0)" xlink:href="#H"/></g></defs></g></svg>